<svg
   xmlns:dc="http://purl.org/dc/elements/1.1/"
   xmlns:cc="http://creativecommons.org/ns#"
   xmlns:rdf="http://www.w3.org/1999/02/22-rdf-syntax-ns#"
   xmlns:svg="http://www.w3.org/2000/svg"
   xmlns="http://www.w3.org/2000/svg"
   xmlns:sodipodi="http://sodipodi.sourceforge.net/DTD/sodipodi-0.dtd"
   xmlns:inkscape="http://www.inkscape.org/namespaces/inkscape"
   width="210mm"
   height="297mm"
   viewBox="0 0 210 297"
   version="1.1"
   id="svg83"
   inkscape:version="0.92.2 (5c3e80d, 2017-08-06)"
   sodipodi:docname="photo.svg">
  <g>
    <path style="fill:none;stroke:#000000;stroke-width:0.26458332px;stroke-linecap:butt;stroke-linejoin:miter;stroke-opacity:1" d="M 0.79138763,7.0332022 0.80319942,3.4660519 0.85044644,3.1943815 0.95675224,3.0644523 1.2520462,2.8400287 c 0,0 0.047247,0 0.1771763,0 0.1299293,0 1.0039992,0.011811 1.0039992,0.011811 L 2.563151,2.78097 c 0,0 0.1181177,-0.023625 0.1181177,-0.082682 0,-0.059059 0.2480469,-0.8386346 0.2480469,-0.8386346 l 0.082682,-0.1063058 0.141741,-0.059059 2.5985862,0.011812 0.1653645,0.059059 0.1063059,0.1181175 0.2716705,0.7913876 0.082682,0.1181176 0.3189173,0.035435 h 0.8622583 c 0,0 0.1653646,0.059059 0.2362351,0.082682 0.07087,0.023625 0.2480469,0.1535531 0.2480469,0.2008 0,0.047247 0.1181174,0.2126115 0.1181174,0.2598587 0,0.047247 0,0.3543527 0,0.3543527 l 0.023625,3.189174 -0.047247,0.236235 -0.1653646,0.2362351 -0.236235,0.1535528 -0.2008,0.094494 L 1.3701647,7.6237906 1.1221179,7.5529201 0.92131802,7.3639322 0.79138869,7.1395086 Z" />
  </g>
</svg>
