<svg
   xmlns:dc="http://purl.org/dc/elements/1.1/"
   xmlns:cc="http://creativecommons.org/ns#"
   xmlns:rdf="http://www.w3.org/1999/02/22-rdf-syntax-ns#"
   xmlns:svg="http://www.w3.org/2000/svg"
   xmlns="http://www.w3.org/2000/svg"
   xmlns:sodipodi="http://sodipodi.sourceforge.net/DTD/sodipodi-0.dtd"
   xmlns:inkscape="http://www.inkscape.org/namespaces/inkscape"
   viewBox="0 0 210 297"
   version="1.1"
   preserveAspectRatio="xMidYMid meet"
   id="svg8"
   inkscape:version="0.92.2 (5c3e80d, 2017-08-06)"
   sodipodi:docname="map_france.svg">
  <g>
    <path id="FR-GUA" style="fill:none;stroke:#000000;stroke-width:0.26458332px;stroke-linecap:butt;stroke-linejoin:miter;stroke-opacity:1" onclick="showRegion('FR-GUA');" d="m 15.520647,184.5757 0.212612,-0.28348 0.118117,-0.47247 0.590588,-0.37797 0.236235,-0.4016 0.212612,-0.44885 c 0,0 0.212611,-0.30711 0.188988,-0.42522 -0.02363,-0.11812 -0.07087,-0.75596 -0.07087,-0.75596 l -0.07087,-0.51971 -0.118118,-0.30711 0.118118,-0.23623 v -0.23624 l -0.236235,-0.11812 -0.165365,-0.59058 -0.09449,-0.37798 -0.09449,-0.51972 0.04725,-0.59059 v -0.56696 l 0.141741,-0.33073 0.543341,0.11812 0.259858,0.21261 -0.04725,-0.47247 h 0.236235 l 0.330729,0.56696 c 0,0 0.09449,0.42523 0.188988,0.42523 0.09449,0 0.354353,0.0709 0.448847,0.0945 0.09449,0.0236 1.157552,0.11812 1.157552,0.11812 l 0.637835,-0.0945 0.732328,-0.28349 0.637835,-0.25986 0.8032,-0.3071 0.94494,-0.16537 0.850447,-0.14174 0.519717,-0.21261 0.708705,0.11812 1.110304,0.21261 -0.259857,-0.25986 h -0.519718 l -0.377976,-0.23623 -0.543341,-0.42523 -0.188988,-0.66146 -0.448846,-0.28348 -0.8032,-0.47247 -1.110305,-0.3071 -0.614211,-0.0236 -0.354353,-0.35436 -0.448847,-0.80319 v -0.70871 l 0.188988,-0.44885 -0.236235,-0.7087 -0.09449,-0.51972 -0.07087,-0.3071 -0.330729,-0.21261 -0.09449,-0.14175 -0.33073,-0.0945 -0.04725,-0.4016 -0.212611,-0.0236 -0.425223,-0.28348 -0.307106,0.11812 v 0.33073 l -0.259859,0.28348 -0.661458,0.59059 -0.377976,0.54334 -0.188988,0.25985 0.188988,0.25986 0.141741,0.70871 0.259859,0.35435 0.377976,0.0945 0.141741,0.56697 -0.02362,0.37797 -0.165365,0.35436 -0.4016,0.0236 -0.283482,0.11811 -0.04725,0.33073 v 0.37798 l -0.141741,0.23623 -0.09449,0.21262 v 0.25986 l -0.165364,0.0945 -0.307106,-0.0236 -0.212611,0.0236 -0.236236,0.18899 c 0,0 0,0.18899 -0.07087,0.28348 -0.07087,0.0945 -0.188988,0.18899 -0.283482,0.16536 -0.09449,-0.0236 -0.118118,-0.35435 -0.118118,-0.35435 l -0.330729,0.0473 -0.09449,0.11812 -0.165365,-0.21261 0.188988,-0.28349 0.188989,-0.23623 0.188987,-0.16537 -0.330729,-0.0945 h -0.401599 l -0.236235,-0.14174 -0.07087,-0.23624 -0.543341,-0.0945 h -0.330729 l -0.188988,-0.28349 -0.496094,-0.18898 -0.307105,-0.44885 -0.354353,-0.11812 -0.165365,-0.0709 -0.425223,0.21262 -0.259857,0.0945 -0.236235,0.25986 -0.118118,0.18899 -0.07087,0.21261 -0.212612,0.16537 -0.04725,0.37797 -0.09449,0.33073 v 0.35436 l -0.09449,0.33073 0.02362,0.23623 v 0.35435 l 0.283482,0.23624 0.118118,0.42522 0.141741,0.49609 -0.07087,0.4016 c 0,0 0.141741,0.21262 0.141741,0.30711 0,0.0945 -0.04725,0.44885 -0.04725,0.44885 0,0 0.165364,0.0709 0.165364,0.21261 0,0.14174 0.07087,0.7087 0.07087,0.7087 0,0 -0.02363,0.42523 -0.02363,0.56697 0,0.14174 0.02363,0.44884 0.02363,0.44884 0,0 -0.07087,0.35436 0,0.44885 0.07087,0.0945 0.04725,0.37798 0.04725,0.51972 0,0.14174 0.188988,0.54334 0.188988,0.54334 0,0 0.236235,0.37797 0.236235,0.47247 0,0.0945 0.04725,0.54334 0.04725,0.54334 l 0.377976,0.47247 c 0,0 0.496094,0.35435 0.496094,0.44885 0,0.0945 0.118117,0.47247 0.118117,0.47247 0,0 -0.165364,0.44884 -0.04725,0.51971 0.118117,0.0709 0.377976,-0.0236 0.496093,-0.0236 0.118118,0 0.377976,-0.0945 0.425224,-0.18899 0.04725,-0.0945 0.188988,-0.33073 0.188988,-0.33073 0,0 0.236235,0.14174 0.330729,0.0472 0.09449,-0.0945 0.236235,-0.25985 0.236235,-0.25985 l 0.354352,0.0945 z" />
    <path id="FR-MRA" style="fill:none;stroke:#000000;stroke-width:0.26458332px;stroke-linecap:butt;stroke-linejoin:miter;stroke-opacity:1" d="m 22.918362,213.47827 0.467721,0.46772 0.06682,-0.60135 0.467721,0.4009 0.400905,-0.33409 0.06682,-0.66817 -0.334087,-0.20045 h 0.668174 c 0,0 0.26727,-0.0668 0.26727,-0.33409 0,-0.26727 0,-0.93544 0,-0.93544 l 0.400904,-0.46773 -0.26727,-1.20271 -0.133634,-0.73499 -0.133635,-0.4009 -0.400905,-0.0668 0.26727,-0.60136 -0.200452,-0.66817 -0.200452,-0.66818 0.267269,-0.53454 -0.734991,-0.0668 0.334087,-0.60136 c 0,0 -0.06682,-0.53454 -0.334087,-0.53454 -0.26727,0 -0.534539,0.13364 -0.534539,0.13364 v -0.60136 l -0.400904,-0.46772 -0.400905,0.0668 -0.133634,-0.46772 0.06681,-0.735 -0.06682,-0.26727 0.601356,-0.53454 -0.534539,-0.20045 c 0,0 -0.267269,-0.13364 -0.534539,0 -0.267269,0.13363 -0.734991,0.53453 -0.734991,0.53453 l -0.534539,-1.13589 0.868626,-0.33409 0.601356,-0.26727 -0.200452,-0.80181 h -0.534539 l -0.133635,-0.66817 -0.200447,-0.60136 0.467722,-0.4009 0.400904,0.4009 0.801809,0.26727 0.06682,-0.4009 0.06682,-0.80181 0.467716,-0.60136 -0.534539,-0.20045 -1.069078,0.53454 -0.467722,0.20045 -0.467721,0.60136 -0.334087,0.53454 -0.868626,-1.87089 -0.534539,-0.73499 -0.734991,-1.26953 -0.801809,-0.80181 -0.868626,-0.26727 -1.603617,-1.46998 -1.336348,0.0668 -1.336347,0.80181 -0.801809,0.93544 v 0.93544 l 0.668174,2.07134 0.935443,1.20271 -0.06682,1.40317 0.668174,1.9377 0.734991,1.33635 0.868626,0.66818 0.734991,0.8018 0.334087,0.13364 0.868626,0.20045 0.534539,0.0668 0.334087,-0.60136 0.400904,0.80181 -0.133635,0.4009 0.133635,0.53454 0.400904,0.66818 0.400905,0.0668 -0.467722,0.86863 c 0,0 -0.334087,-0.13363 -0.601356,-0.13363 -0.26727,0 -0.601357,-0.53454 -0.601357,-0.53454 l -0.334087,-0.40091 -0.400904,0.73499 -0.467722,0.13364 -0.601356,0.93544 -0.06682,0.73499 0.601356,-0.13363 -0.133635,0.86862 0.26727,0.66818 0.133634,0.60135 0.801809,0.40091 0.26727,-0.73499 0.200452,-0.53454 0.467721,-0.20045 0.534539,0.66817 0.53454,-0.20045 0.400904,-0.13364 0.668174,0.53454 1.336347,-0.0668 0.26727,0.73499 0.868632,-0.80177 c 0,0 0.734991,-0.20045 0.601356,0.0668 -0.133635,0.26726 -0.601356,1.06907 -0.601356,1.06907 l -0.200452,0.40091 -0.200453,0.80181 z" />
    <path id="FR-GUY" style="fill:none;stroke:#000000;stroke-width:0.26458332px;stroke-linecap:butt;stroke-linejoin:miter;stroke-opacity:1" d="m 22.914806,251.07589 0.236235,0.47247 h 0.755953 l 0.377976,-0.18899 h 0.283482 l 0.377976,-0.7087 1.653645,-0.8977 0.566965,-0.75595 0.566965,-0.70871 0.425222,-1.03943 0.33073,-0.66146 0.425222,-1.13393 0.377979,-0.51971 0.803198,-1.6064 -0.330729,-0.18899 c 0,0 0.330729,-0.85045 0.566965,-0.85045 0.236233,0 0.850445,-0.33073 0.850445,-0.33073 l 1.748141,-3.21279 0.236234,-0.70871 0.661458,-0.0945 0.755954,-1.37017 0.850445,-1.22842 0.803201,-0.33073 v -0.66146 l 0.236233,-0.7087 -0.283482,-0.18899 -0.661459,-0.99219 0.236236,-0.42522 -0.519716,-0.28348 -0.236235,-1.13393 -1.086681,-0.85045 -0.377979,0.66146 0.141743,1.27567 -0.188989,0.37798 -1.41741,0.7087 1.133927,-0.75595 0.188989,-0.70871 c 0,0 -0.377975,-0.89769 -0.472469,-1.08668 -0.0945,-0.18899 -0.803201,-1.13393 -0.803201,-1.13393 l -1.27567,-0.85044 -0.614211,0.0472 v -0.47248 l -0.330729,-0.47247 -0.614209,-0.18899 -1.795389,-1.13392 -2.362351,-1.84264 v -0.42522 l -1.275669,-0.75595 -0.755953,0.18899 -0.283482,-0.37798 -1.606398,-0.23624 -2.315105,-0.51971 -1.937128,-1.03944 -0.708705,-0.37797 -0.992187,-0.23624 -0.944941,0.33073 -0.283482,0.94494 -0.188988,1.03944 -0.992188,1.41741 -1.228422,0.85044 c 0,0 -0.708706,0.61422 -0.944941,0.8032 -0.236235,0.18899 -0.8504462,1.13393 -0.8504462,1.13393 l -0.4724702,1.55915 0.3779761,0.85045 0.1417413,1.70089 0.094494,1.13393 0.283482,0.42522 0.04725,0.8032 v 0.61421 l 0.614211,0.42523 -0.188988,1.03943 0.8032,0.75595 c 0,0 -0.141741,0.28349 0.283482,0.61422 0.425223,0.33073 0.850446,0.61421 0.850446,0.61421 0,0 0.425224,0.23623 0.425224,0.66145 0,0.42523 1.086681,0.85045 1.086681,0.85045 0,0 -0.236235,0.42522 -0.236235,0.75595 0,0.33073 -0.330729,1.51191 -0.330729,1.51191 l -0.566965,0.7087 -0.661458,0.94494 0.09449,0.99219 -0.141741,1.70089 -0.755952,1.46466 -0.8032,1.6064 -1.1811753,0.99219 -1.0866816,0.51972 0.6614584,0.51971 1.0394345,0.75596 c 0,0 -0.9449415,-0.0472 0,0 0.94494,0.0472 1.889881,0.47247 1.889881,0.47247 0,0 0.803199,0.0472 0.992188,0.0945 0.188988,0.0473 0.519717,-0.47247 0.519717,-0.47247 l 0.708705,-0.0945 0.425223,-0.42523 c 0,0 0.330729,-0.47247 0.519718,-0.47247 0.188988,0 1.133928,-0.47247 1.133928,-0.47247 l 0.94494,0.66146 c 0,0 1.086682,0.0472 1.27567,0.0945 0.188988,0.0472 0.992188,-0.28348 0.992188,-0.28348 l 0.755952,-0.47247 0.897693,0.56697 -0.283482,0.51971 0.283482,0.0945 z" />
    <path id="FR-MAY" style="fill:none;stroke:#000000;stroke-width:0.26458332px;stroke-linecap:butt;stroke-linejoin:miter;stroke-opacity:1" d="m 136.18954,251.02864 0.18899,-0.33073 h 0.11812 l 0.21261,-0.35435 -0.0472,-0.11812 h -0.40161 l -0.14173,-0.0472 -0.21262,-0.21261 h -0.42522 l -0.4016,-0.54335 -0.30711,-0.42522 -0.0945,-0.14174 0.3071,-0.4016 0.11812,0.14174 0.23624,-0.0945 0.0709,-0.18899 -0.21261,-0.25986 0.11811,-0.35435 0.23624,-0.18899 h 0.23624 l -0.0236,-0.23623 0.0945,-0.0945 0.33073,-0.0709 0.23624,0.21261 0.33073,-0.0236 h 0.16536 l -0.3071,-0.4016 -0.0709,-0.6142 0.0709,-0.33073 0.47247,-0.16537 0.33072,-0.25986 0.25986,-0.23623 -0.18898,-0.11812 0.35435,-0.44885 -0.0236,-0.14174 -0.30711,-0.0945 -0.23623,-0.0472 0.0236,-0.3071 -0.42523,-0.18899 -0.23623,-0.44885 -0.37798,-0.56697 0.18899,-0.59058 v -0.23624 l -0.0945,-0.3071 0.35435,-0.0709 0.0945,-0.23624 0.14175,-0.37798 0.37797,-0.40159 0.25986,-0.14174 v -0.25986 l 0.35436,-0.37798 0.37797,-0.16536 0.30711,-0.0236 c 0,0 -0.0236,0.0945 0.0709,0.0945 0.0945,0 0.11811,-0.35436 0.11811,-0.35436 l -0.37797,-0.23623 0.0472,-0.28349 0.11811,-0.14174 0.14174,-0.37797 -0.0236,-0.25986 -0.16537,-0.4016 -0.21261,-0.0945 -0.16537,-0.30711 -0.25985,0.11812 -0.0709,-0.11812 -0.28348,-0.16536 -0.14174,-0.40161 -0.18898,-0.0236 -0.11812,0.11812 -0.21261,-0.28349 -0.30711,-0.0236 -0.23624,0.0709 -0.25985,-0.16537 -0.21262,0.0472 -0.23623,-0.0709 -0.25986,-0.0236 -0.51972,-0.49609 v -0.14175 l -0.21261,-0.0709 -0.11812,0.21261 0.14175,0.21261 -0.21262,0.16536 -0.14174,0.4016 -0.28348,-0.0236 -0.0236,-0.14174 c 0,0 -0.0945,-0.11812 -0.18899,-0.11812 -0.0945,0 -0.4016,0.0709 -0.4016,0.0709 l -0.16536,-0.21261 h -0.18899 l -0.25986,-0.56697 -0.25986,-0.33073 -0.11811,-0.0945 0.18898,-0.35435 c 0,0 0.16537,-0.0709 0.0473,-0.11812 -0.11811,-0.0472 -0.37797,-0.0472 -0.37797,-0.0472 l -0.25985,-0.28348 -0.21261,-0.25986 -0.16537,-0.4016 -0.37797,-0.0709 -0.0945,-0.35435 -0.35435,-0.28349 h -0.16537 l 0.4016,-0.23623 0.4016,-0.18899 -0.0472,-0.28348 0.23623,-0.33073 -0.21261,-0.16536 -0.25986,0.44884 -0.21261,0.0472 -0.28348,0.28348 -0.30711,0.18899 -0.21261,0.51972 c 0,0 0,0.33073 -0.14174,0.33073 -0.14174,0 -0.56696,-0.18899 -0.56696,-0.18899 l -0.0709,0.33073 0.23624,0.16536 -0.23624,0.18899 -0.16536,0.25986 c 0,0 0,0.25986 -0.0945,0.25986 -0.0945,0 -0.54335,-0.0945 -0.54335,-0.0945 l -0.14174,0.4016 -0.16536,0.37798 -0.37798,0.33073 v 0.28348 l 0.44885,-0.0472 c 0,0 0.4016,-0.0709 0.33073,0.0709 -0.0709,0.14174 0.0473,0.51972 0.0473,0.51972 l -0.28349,0.21261 -0.35435,0.30711 0.0236,0.33073 0.28348,0.35435 0.23623,0.0945 0.0472,-0.25986 h 0.14174 l 0.35436,0.16537 0.28348,0.4016 0.33073,0.23623 0.28348,0.11812 0.21261,-0.11812 0.14174,0.23624 0.25986,0.0472 0.28348,-0.16537 0.0945,0.16537 -0.0236,0.28348 v 0.25986 l -0.16537,0.0945 -0.0472,0.16537 0.0472,0.18898 -0.0945,0.25986 0.16536,0.0236 0.14174,-0.16536 0.21261,0.21261 -0.0945,0.14174 -0.18899,0.0709 -0.0709,0.33073 0.16537,0.25986 0.0945,0.18899 0.11812,0.28348 -0.18899,0.23623 0.0236,0.68508 0.11812,0.16537 h 0.21261 l 0.35435,0.21261 -0.18899,0.16537 -0.56696,0.0945 -0.0945,0.14174 -0.4016,0.14174 0.0236,0.21261 0.18899,0.0236 0.21261,0.30711 0.25986,0.25986 0.3071,-0.0473 0.28349,0.42522 0.4016,0.73233 0.23623,0.0236 c 0,0 0.23623,0.23623 0.30711,0.37797 0.0709,0.14174 0.40159,0.59059 0.40159,0.68509 0,0.0945 0.30711,0.63783 0.30711,0.63783 l 0.14174,0.75595 -0.25986,0.44885 -0.51972,-0.0472 h -0.35435 l -0.16536,-0.33073 -0.82682,-0.3071 h -0.18899 l -0.33073,-0.8032 0.16536,-0.25986 -0.28348,-0.42522 -1.46466,0.11811 -0.14174,0.14175 0.4016,0.47247 0.28348,0.7087 0.30711,0.35435 0.30711,0.0945 c 0,0 0.0709,-0.35436 0.16536,-0.18899 0.0945,0.16536 0.49609,0.42522 0.35435,0.42522 -0.14174,0 -0.3071,0.28349 -0.3071,0.28349 v 0.37797 l -0.37798,0.4961 -0.63783,0.40159 0.47247,0.16537 c 0,0 0.23623,0.0945 0.33073,0.0473 0.0945,-0.0473 0.3071,-0.11812 0.3071,-0.11812 l 0.14174,-0.16537 0.23624,0.0945 0.14174,0.3071 -0.16537,0.28349 0.0709,0.35435 -0.0945,0.3071 0.14174,0.42523 0.14174,-0.16537 0.21261,-0.33073 h 0.37798 l 0.14174,0.21262 -0.0709,0.11811 0.30711,0.28348 0.28348,-0.11811 0.3071,0.11811 0.16537,0.30711 0.33073,0.0709 0.33073,-0.21261 0.18899,-0.47247 0.16536,-0.11812 -0.11812,-0.23623 0.0709,-0.28348 0.37798,-0.0709 0.4016,0.44885 -0.0236,0.21261 0.25986,0.25986 -0.0472,0.28348 0.30711,-0.0236 v -0.54334 l 0.16536,-0.0473 0.4016,0.14174 z" />
    <path id="FR-MAY" style="fill:none;stroke:#000000;stroke-width:0.26458332px;stroke-linecap:butt;stroke-linejoin:miter;stroke-opacity:1" d="m 127.25986,232.2952 0.0945,0.18899 0.28348,-0.18899 c 0,0 0.21262,0.21261 0.21262,-0.0236 0,-0.23624 0,-0.35435 0,-0.35435 l 0.28348,-0.0472 c 0,0 0.0473,-0.18899 -0.0709,-0.25986 -0.11812,-0.0709 -0.14175,-0.0472 -0.23624,-0.14174 -0.0945,-0.0945 -0.42522,-0.30711 -0.42522,-0.30711 l -0.21261,0.0709 -0.18899,0.23623 -0.21261,0.25986 0.23623,0.21261 0.35435,0.11812 z" />
    <path id="FR-MAY" style="fill:none;stroke:#000000;stroke-width:0.26458332px;stroke-linecap:butt;stroke-linejoin:miter;stroke-opacity:1" d="m 140.84338,240.72879 0.0709,0.42523 0.23623,0.21261 0.21261,-0.4961 0.35436,-0.25986 0.3071,-0.18898 c 0,0 -0.18899,-0.0945 -0.16536,-0.21262 0.0236,-0.11811 0.0236,-0.47247 0.14174,-0.47247 0.11812,0 0.33073,-0.16536 0.18899,-0.23623 -0.14174,-0.0709 -0.33073,-0.23624 -0.33073,-0.23624 l -0.0473,-0.56696 -0.59059,-0.44885 -0.21261,0.44885 -0.49609,0.25986 -0.37798,0.37798 v 0.23623 l 0.42522,-0.28348 -0.0236,0.4016 c 0,0 0.0236,0.4016 -0.16537,0.3071 -0.18899,-0.0945 -0.54334,-0.56696 -0.54334,-0.56696 l -0.33073,0.11812 0.11812,0.23623 0.61421,0.33073 z" />
    <path id="FR-REU" style="fill:none;stroke:#000000;stroke-width:0.26458332px;stroke-linecap:butt;stroke-linejoin:miter;stroke-opacity:1" d="m 169.0026,248.85528 -0.18898,-1.98438 -0.0945,-1.13393 0.33073,-1.32291 0.47247,-0.61421 0.0945,-0.51972 0.14174,-0.23624 -0.0945,-0.94494 -0.47247,-0.51971 -0.99219,-0.56697 -1.22842,-1.55915 -0.7087,-1.18117 -0.37798,-0.8032 -0.33073,-0.66146 -0.0945,-1.51191 -0.85044,-1.22842 -1.03943,-0.89769 -0.80321,-0.0473 -0.75595,-0.47247 -1.13392,-0.14174 h -0.70871 l -0.75595,-0.37798 -0.99219,0.0945 -0.99219,-0.66146 c 0,0 -0.37797,0.0945 -0.56696,0.18899 -0.18899,0.0945 -0.94494,0.0945 -0.94494,0.0945 l -1.03944,0.8032 c 0,0 -0.51971,0.8032 -0.7087,0.85045 -0.18899,0.0472 -0.61422,0.28348 -0.8977,0.28348 -0.28348,0 -0.94494,-0.14174 -0.94494,-0.14174 l -0.33073,0.75595 0.0945,0.99219 -0.28348,1.13393 -0.66146,0.42522 -0.8977,0.23624 -0.23623,0.66145 0.0945,0.70871 v 0.7087 l 0.56697,0.70871 0.7087,0.8032 0.37798,0.89769 0.47247,0.75595 v 1.46466 l 0.33073,0.94494 0.7087,0.8032 0.66146,0.85045 0.0945,0.42522 1.27567,0.28348 0.51971,0.37798 0.94494,0.89769 1.03944,0.47247 1.37016,0.70871 1.27567,0.61421 1.18118,0.28348 1.03943,0.42522 1.32292,-0.0472 0.7087,-0.28348 c 0,0 -0.0945,-0.23624 0.33073,-0.28349 0.42522,-0.0472 1.55915,-0.18898 1.84264,-0.18898 0.28348,0 1.55915,-0.37798 1.55915,-0.37798 z" />
    <path id="FR-NPC" style="fill:none;stroke:#000000;stroke-width:0.26458332px;stroke-linecap:butt;stroke-linejoin:miter;stroke-opacity:1" d="m 101.10863,61.70982 1.32292,-10.016368 1.88988,-1.700892 12.6622,-1.700895 -0.18899,4.724704 2.26786,1.700892 2.26786,0.377976 2.83482,-1.511906 2.45684,5.858632 2.64584,0.566965 1.13392,3.96875 6.80358,0.944941 1.32291,5.858629 -2.07887,1.700895 -2.26785,-1.511906 -3.2128,0.377976 -2.83482,-0.566965 -3.59078,0.755954 -1.70089,-1.889882 -8.88244,-2.078868 0.37798,-1.511906 h -5.10268 l -3.02381,-3.023809 h -2.83482 z" />
    <path id="FR-PIC" style="fill:none;stroke:#000000;stroke-width:0.26458332px;stroke-linecap:butt;stroke-linejoin:miter;stroke-opacity:1" d="m 101.10863,61.70982 -1.228423,1.700893 -0.09449,6.142114 1.700893,2.645833 0.28348,1.6064 0.47247,1.511903 -1.41741,4.252232 0.94494,1.322917 -1.03944,1.795386 -0.18898,4.819197 3.77976,-0.188989 1.41741,-0.566962 2.36235,1.700892 2.36235,-0.850448 2.26786,2.456847 7.65402,0.755952 1.03943,-1.795386 3.68527,5.291667 3.02381,-0.472472 c 0,0 -0.85045,-5.38616 -0.37798,-5.38616 0.47247,0 2.07887,0.188987 2.07887,0.188987 l -1.5119,-3.779761 5.57514,-0.661458 1.03944,-0.661459 c 0,0 0.28348,-5.102677 0.66146,-5.102677 0.37797,0 2.55134,-3.401788 2.55134,-3.401788 l 0.37797,-4.252232 -2.07887,1.700895 -2.26785,-1.511906 -3.2128,0.377976 -2.83482,-0.566965 -3.59078,0.755954 -1.70089,-1.889882 -8.88244,-2.078868 0.37798,-1.511906 h -5.10268 l -3.02381,-3.023809 h -2.83482 z" />
    <path id="FR-CHA" style="fill:none;stroke:#000000;stroke-width:0.26458332px;stroke-linecap:butt;stroke-linejoin:miter;stroke-opacity:1" d="m 138.52827,70.781248 3.40179,0.661458 4.63021,-4.25223 v 7.9375 l 1.98437,0.09449 5.29167,5.38616 -0.94494,1.13393 -2.55134,-1.13393 -2.64583,6.236608 -0.75596,4.724701 1.51191,0.661459 -0.75595,4.91369 -1.88989,-0.09449 0.94494,2.83482 1.03944,0.188986 6.04762,5.00819 -0.28349,2.36235 3.77977,0.66146 -0.18899,3.21279 -0.75595,0.85045 2.55134,3.2128 -1.88988,2.74033 -0.37798,1.70089 -0.0945,1.03943 -1.22843,0.28349 -0.75595,-0.66146 -1.70089,1.79538 -3.77976,-0.75595 -2.55134,-1.13393 0.37797,-2.26785 -4.34672,-5.57515 -6.23661,3.1183 -1.41741,0.18899 -0.56697,-1.22842 -3.77976,0.37797 -2.45684,-5.57515 -2.17337,-0.0945 0.37798,-2.17336 -2.36235,-1.6064 0.18899,-3.77976 1.79538,-1.7009 -0.85044,-5.764132 3.02381,-0.472472 -0.75596,-5.480653 2.45685,0.28348 -1.5119,-3.779761 5.57514,-0.661458 1.03944,-0.661459 0.47247,-5.008184 0.66146,-0.472472 2.07887,-3.023809 z" />
    <path id="FR-LOR" style="fill:none;stroke:#000000;stroke-width:0.26458332px;stroke-linecap:butt;stroke-linejoin:miter;stroke-opacity:1" d="m 153.83631,80.608624 1.88988,0.472477 3.2128,-0.472472 3.30729,2.55134 4.25223,-1.039434 1.41741,1.228421 1.70089,-0.377976 3.87426,5.575149 2.64583,-1.322916 3.02381,2.173364 3.49628,-1.13393 2.45685,0.566965 -0.0945,1.984375 -1.03943,2.834822 -3.02381,0.28348 -3.49628,-1.889879 -1.51191,3.023809 1.51191,2.456844 2.64583,-0.755951 1.03944,1.133927 -0.85045,2.740331 -2.74033,2.74032 0.37798,3.68527 1.51191,0.75595 -2.26786,2.17337 -0.18899,2.55134 -3.40179,6.42559 -3.40178,-3.40178 -1.22842,1.5119 -1.7009,-1.98437 -3.40178,0.85044 -0.56697,-1.5119 -4.34672,0.94494 -2.55134,-3.2128 0.75595,-0.85045 0.18899,-3.21279 -3.77977,-0.66146 0.28349,-2.36235 -6.04762,-5.00819 -1.03944,-0.188989 -0.94494,-2.834819 1.88989,0.09449 0.75595,-4.913688 -1.51191,-0.661461 0.75596,-4.724699 2.64583,-6.23661 2.55134,1.13393 z" />
    <path id="FR-ALS" style="fill:none;stroke:#000000;stroke-width:0.26458332px;stroke-linecap:butt;stroke-linejoin:miter;stroke-opacity:1" d="m 185.01934,90.813987 v 0 l 9.44941,1.889881 -0.66146,3.401785 -2.92932,2.456844 -5.19717,14.363093 0.85045,1.6064 -2.64584,5.29167 1.22843,2.07887 -2.55134,3.96875 -1.51191,0.0945 -1.32291,1.51191 -1.6064,-2.55134 -0.0945,-1.13393 -2.26785,-2.64583 0.18898,-1.13393 -2.36235,-1.03944 3.40179,-6.42559 0.18899,-2.55134 2.26786,-2.17337 -1.51191,-0.75595 -0.37798,-3.68527 2.74033,-2.74032 0.85045,-2.740334 -1.03944,-1.133924 -2.64583,0.755949 -1.51191,-2.456844 1.51191,-3.023807 3.49628,1.889877 3.02381,-0.28348 z" />
    <path id="FR-ILE" style="fill:none;stroke:#000000;stroke-width:0.26458332px;stroke-linecap:butt;stroke-linejoin:miter;stroke-opacity:1;" d="m 100.54167,87.506695 -3.212803,1.889882 -1.039434,4.441219 1.795388,1.606399 0.28348,3.779761 2.267859,1.511904 3.40179,5.00819 5.19717,0.28348 1.5119,3.1183 5.48066,1.13393 2.92931,-4.44122 4.81919,-0.28349 0.18899,-3.77976 1.79538,-1.7009 -0.85044,-5.764133 -3.68526,-5.291656 -1.03943,1.795386 -7.65402,-0.755952 -2.26786,-2.456849 -2.36235,0.85045 -2.36235,-1.700892 -1.41741,0.566962 z" />
    <path id="FR-HNO" style="fill:none;stroke:#000000;stroke-width:0.26458332px;stroke-linecap:butt;stroke-linejoin:miter;stroke-opacity:1" d="m 99.785714,66.151039 -1.417413,1.700896 -7.181545,3.401785 -5.291667,1.133927 -3.496281,1.984375 -0.472469,1.322917 -1.039434,1.984375 3.023809,0.283482 3.590774,0.850448 -3.68527,0.566962 -0.377976,0.755954 1.511906,4.724702 -0.283482,5.38616 2.36235,0.566965 3.023809,5.197173 6.236608,-2.173364 1.039434,-4.441219 3.212803,-1.889882 0.18898,-4.819197 1.03944,-1.795386 -0.94494,-1.322917 1.41741,-4.252232 -0.75595,-3.118303 -1.700894,-2.645833 z" />
    <path id="FR-BNO" style="fill:none;stroke:#000000;stroke-width:0.26458332px;stroke-linecap:butt;stroke-linejoin:miter;stroke-opacity:1" d="m 83.816218,79.380206 -2.645833,0.377978 -3.023809,1.511904 -10.488838,-2.078869 -2.740329,-0.188989 -1.41741,-2.929316 -0.377976,-0.566962 1.228424,-0.850448 0.377976,-2.36235 -1.133931,-0.944941 -1.606399,0.472472 -0.850445,0.472469 -3.874256,-0.283483 -1.700893,-1.228423 -1.41741,1.13393 1.700893,1.41741 -0.944941,2.173364 1.039434,2.362351 1.984375,4.724701 -0.755952,9.260417 1.795386,2.456847 -2.83482,0.472469 0.283483,1.511906 2.078868,1.984375 1.700893,-2.173365 5.291666,0.755952 1.606399,2.078871 6.898066,-2.078871 2.551337,2.173364 0.0945,2.173361 5.480654,-1.13393 1.039434,2.07887 -0.09449,1.41741 2.929316,0.66146 1.984375,2.17336 v -2.92931 l 2.267858,-1.13393 v -2.17336 l -0.472472,-1.511907 0.28348,-2.645833 -3.023809,-5.197173 -2.362348,-0.566965 0.283482,-5.38616 -1.511906,-4.724702 z" />
    <path id="FR-BRE" style="fill:none;stroke:#000000;stroke-width:0.26458332px;stroke-linecap:butt;stroke-linejoin:miter;stroke-opacity:1" d="m 56.129464,94.782737 -2.645833,-0.472469 -0.188989,-0.944941 0.755951,-0.850448 h -2.834819 l 0.09449,1.795389 -0.566965,0.472469 -0.850445,-1.228424 -1.606399,0.850448 -0.566965,0.188986 0.0945,-2.173361 -2.74033,0.09449 -3.685267,1.795389 -3.118302,-4.441222 -1.6064,-1.228423 0.566965,-2.740327 -2.456846,1.13393 -2.173362,0.28348 -2.078871,-0.377976 -2.551337,2.834823 -1.511906,1.133927 -0.755952,-2.551337 -1.417411,2.551337 -1.795387,-1.795386 -4.724702,1.133928 -1.228423,-1.039434 -5.669643,1.889881 0.377977,1.41741 -0.755953,0.283483 -0.188988,1.606399 1.795387,0.850445 2.834821,-0.377976 2.078869,-0.944941 0.188988,0.850448 -0.850446,0.566965 1.795387,1.889879 h -3.307292 l -1.322916,-1.511903 -1.700893,1.511903 1.795387,1.984375 v 0.566965 l 1.228422,-1.039434 1.606399,1.795386 -1.322917,1.22843 -4.91369,-0.37798 0.283482,0.94494 1.984375,0.75595 1.700893,2.45685 v 1.88988 l 3.307292,1.41741 0.566964,-2.07887 h 2.834821 l 0.472471,1.51191 3.118303,0.66145 1.889881,0.56697 2.078869,2.55134 0.472469,-0.47247 1.511905,0.0945 1.511905,2.07887 -0.47247,2.17336 0.283482,1.51191 1.417411,1.32292 -0.188988,-3.68527 1.511904,-0.75595 2.929316,0.18898 v 1.13393 l -2.267857,-0.28348 1.133928,1.6064 1.700893,0.56696 3.49628,0.56697 3.590774,-1.41741 1.133928,-2.92932 h 2.929316 l 1.795387,-1.6064 3.023809,0.66146 2.078869,-2.17336 2.456846,1.41741 1.700892,-2.07887 0.283483,-2.07887 c 0,0 2.645833,1.03943 2.740327,0.56696 0.09449,-0.47247 -0.283482,-2.26785 -0.283482,-2.26785 l -1.322917,-3.77976 1.700893,-0.85045 -0.09449,-5.008185 -3.02381,-0.472472 -1.700893,2.173365 -2.078868,-1.984375 z" />
    <path id="FR-PLO" style="fill:none;stroke:#000000;stroke-width:0.26458332px;stroke-linecap:butt;stroke-linejoin:miter;stroke-opacity:1" d="M 41.482885,118.12278 Z" />
    <path id="FR-PLO" style="fill:none;stroke:#000000;stroke-width:0.26458332px;stroke-linecap:butt;stroke-linejoin:miter;stroke-opacity:1" d="m 41.482885,118.12278 v 0 0 l -1.039434,0.99217 -0.14174,0.47247 0.519716,0.66146 v 0.66146 l -1.700893,0.33073 0.141743,0.61421 1.748139,0.28348 2.220611,0.75596 c 0,0 2.031622,-0.94495 2.267857,-0.94495 0.236234,0 1.511904,-0.0945 1.700893,0.0473 0.188987,0.14174 3.449032,0.94494 3.449032,0.94494 0,0 -2.88207,0.37798 -3.307292,0.23624 -0.425223,-0.14174 -1.653646,-0.14174 -1.653646,-0.14174 l -1.133927,2.22061 2.126115,1.27567 c 0,0 0.708705,0.75595 0.614211,0.99218 -0.09449,0.23624 -0.04725,0.66146 -0.566965,0.8032 -0.519716,0.14174 -2.173361,0.99219 -1.984375,0.99219 0.188989,0 0.377976,1.6064 0.377976,1.6064 l -1.41741,0.33073 1.795388,2.03162 1.984375,1.65365 0.47247,1.98437 c 0,0 0.519718,2.3151 0.708705,2.36235 0.188989,0.0472 0.8032,0.33073 0.8032,0.33073 l 1.133928,0.42523 3.165552,3.26004 c 0,0 2.315104,0.70871 2.551337,0.70871 0.236236,0 5.338913,0.23623 5.338913,0.23623 0,0 0.377979,1.08668 0.566965,1.08668 0.188989,0 2.929316,-1.27567 2.929316,-1.27567 0,0 -1.27567,-0.99219 -1.181177,-1.18117 0.0945,-0.18899 -0.519715,-4.63021 -0.519715,-4.63021 l 1.464656,-1.55915 c 0,0 -2.031621,-1.84264 -2.220608,-1.88988 -0.188989,-0.0473 -1.370166,-1.27567 -1.370166,-1.27567 l -0.28348,-1.84264 -3.307291,-3.44903 c 0,0 5.716889,1.88988 5.905875,1.88988 0.188989,0 0.755954,0 0.755954,0 0,0 1.41741,-1.6064 1.6064,-1.6064 0.188986,0 7.465028,0.56697 7.465028,0.56697 l 2.315104,-1.27567 -0.09449,-1.55916 c 0,0 -0.472472,-0.99218 0.09449,-1.08668 0.566965,-0.0945 2.031621,-1.22842 2.031621,-1.22842 l 0.425226,-5.95313 6.850816,-0.42522 -0.188987,-2.55134 3.212796,-1.88988 0.141743,-4.06324 2.315104,-0.14174 -2.598579,-2.5041 -1.984375,-2.17336 -2.929318,-0.66146 0.09449,-1.41741 -1.039434,-2.07887 -5.480653,1.13393 -0.0945,-2.173363 -2.551335,-2.173362 -6.898066,2.078871 -1.606399,-2.078871 -2.267852,-0.283472 0.09449,5.008187 -1.700892,0.85045 1.322916,3.77976 0.330729,1.98436 -0.188986,0.42522 -2.598587,-0.70869 -0.283482,2.07887 -1.700893,2.07887 -2.456847,-1.41741 -2.078868,2.17336 -3.023809,-0.66146 -1.795386,1.6064 h -2.929316 l -1.13393,2.92932 z" />
    <path id="FR-CEN" style="fill:none;stroke:#000000;stroke-width:0.26458332px;stroke-linecap:butt;stroke-linejoin:miter;stroke-opacity:1" d="m 116.22768,110.27976 1.37016,0.28348 0.42522,1.03944 -0.0945,3.2128 -1.55915,3.59077 v 1.03943 l 0.94494,1.27567 0.0473,1.37017 -0.94494,0.23623 -0.47247,0.8032 -0.42523,2.26786 1.08668,1.6064 0.56697,1.22842 -0.42523,6.3311 1.13393,1.32292 -0.14174,2.83482 -7.41778,1.98437 -0.61421,4.15774 -3.35454,1.08668 -1.88988,0.51972 -1.74814,-0.47247 -5.716892,-0.0473 c 0,0 -2.126115,0.51972 -2.315104,0.51972 -0.188987,0 -1.937126,-0.56696 -1.937126,-0.56696 l -2.362353,-0.33073 -3.023809,-5.29167 0.661458,-2.83482 -0.04725,-0.8032 -2.173364,0.0473 -3.071056,-4.58296 -3.77976,0.94494 -0.283483,-3.68527 -2.882069,-1.5591 -0.09449,-1.55916 v 0 0 h -3.7e-5 l -0.236238,-0.99223 2.362349,-1.32287 0.425226,-5.95313 6.850816,-0.42522 -0.188987,-2.55134 3.212796,-1.88988 0.141743,-4.06324 2.315104,-0.14174 -2.598579,-2.50415 v -2.92931 l 2.267858,-1.13393 v -2.17336 l -0.472472,-1.511907 0.283474,-2.645833 6.236608,-2.173364 1.795388,1.606399 0.28348,3.779761 2.267859,1.511904 3.40179,5.00819 5.19717,0.28348 1.5119,3.1183 5.48066,1.13393 v 0 0" />
    <path id="FR-POI" style="fill:none;stroke:#000000;stroke-width:0.26458332px;stroke-linecap:butt;stroke-linejoin:miter;stroke-opacity:1" d="m 56.318451,144.01414 -0.14174,1.13392 -1.370163,1.32292 2.882066,3.68527 -1.228421,0.51972 -0.566965,0.0472 1.464657,1.74814 -1.086681,1.51191 -0.614211,1.27567 -2.078869,0.89769 c 0,0 -1.511906,-1.84263 -1.795385,-1.84263 -0.283483,0 -3.307292,-1.13393 -3.307292,-1.13393 l 0.236233,1.93712 1.795389,1.13393 1.984375,1.65365 0.614211,1.6064 2.220608,0.85044 2.787576,2.69308 1.984375,3.87426 2.551338,-0.18899 1.27567,1.27567 v 2.31511 l 2.456846,0.18898 1.889879,2.45685 1.748142,-0.75595 0.425223,-1.55916 3.874256,-1.98437 0.188987,-2.50409 2.126117,-0.28348 1.511904,-3.59078 c 0,0 -0.09449,-0.89769 0.236236,-0.94494 0.330729,-0.0472 3.118302,-1.27567 3.071055,-1.46465 -0.04725,-0.18899 4.110493,-4.06325 4.110493,-4.06325 l -2.220611,-4.58296 1.559152,-1.74814 1.937129,-2.03162 3.543564,-1.88993 -3.023809,-5.29167 0.661459,-2.83482 -0.04725,-0.8032 -2.173362,0.0473 -3.071058,-4.58296 -3.779758,0.94494 -0.283483,-3.68527 -2.882069,-1.5591 -2.315141,1.27567 -7.512278,-0.56702 -1.55915,1.60645 -0.94494,-0.0945 -5.716889,-1.79534 3.307291,3.44903 0.28348,1.84264 3.590774,3.16555 -1.464656,1.55915 0.614211,4.7719 1.086681,1.03948 -2.882069,1.27562 -0.614212,-1.08663 z" />
    <path id="FR-LIM" style="fill:none;stroke:#000000;stroke-width:0.26458332px;stroke-linecap:butt;stroke-linejoin:miter;stroke-opacity:1" d="m 104.46321,146.47098 0.80316,0.89769 0.51972,2.36235 4.06324,3.87426 0.0945,3.77976 c 0,0 -1.88988,0.8977 -2.17336,0.8977 -0.28348,0 -1.41741,0.51971 -1.41741,0.51971 l 0.99219,1.27567 0.75595,0.75596 -0.66146,1.37016 1.55915,1.93713 -0.66145,1.84263 -0.0945,3.16555 -3.16555,0.99219 -0.56696,0.66146 -0.14174,1.46465 -0.75596,1.18118 -1.6064,0.94494 -0.14174,1.74814 -1.55915,2.12612 -6.283855,0.0945 -2.645833,-0.56696 -0.661458,-0.33073 v -3.49628 l -2.976563,-3.16555 1.984375,-1.88988 v -2.59859 h -1.748139 c 0,0 -1.700892,-2.64583 -1.937128,-2.78757 -0.236236,-0.14175 -0.944941,-1.37017 -1.370163,-1.55916 -0.425223,-0.18898 -3.212799,-2.03162 -3.212799,-2.03162 l 4.110493,-4.11053 -2.220611,-4.58296 3.496281,-3.77976 3.543564,-1.88989 2.362354,0.33073 1.937086,0.61426 2.315144,-0.56702 5.716892,0.0473 z" />
    <path id="FR-FCP" style="fill:none;stroke:#000000;stroke-width:0.26458332px;stroke-linecap:butt;stroke-linejoin:miter;stroke-opacity:1" d="m 152.89136,122.2805 0.51972,0.99219 0.99219,0.61421 -0.18899,0.56697 -1.74814,1.79538 1.13393,2.03163 -0.18899,1.70089 -0.75595,0.99219 -0.8032,1.55915 -2.50409,3.40178 -0.8032,0.94494 2.03162,1.88989 c 0,0 1.08669,0.75595 0.70871,0.75595 -0.37798,0 -2.55134,0.42522 -2.55134,0.42522 l 0.23624,0.85045 1.55915,1.84263 -0.61422,3.30729 1.03944,1.08668 -1.84263,1.74814 3.16555,2.88207 1.88988,-1.37016 1.88988,1.74814 7.1343,-5.00819 0.99219,-2.59858 -0.23624,-2.64584 3.96875,-2.26785 0.28348,-0.70871 0.18899,-2.12611 9.07143,-7.2288 0.14174,-1.74814 -3.54353,-0.28348 0.94494,-0.85045 0.70871,-0.8032 1.93713,0.18899 0.47247,-1.03942 -0.0945,-1.13393 -2.26785,-2.64583 0.18898,-1.13393 -2.36235,-1.03945 -3.40178,-3.40178 -1.22842,1.5119 -1.7009,-1.98437 -3.40178,0.85044 -0.56697,-1.5119 -4.34672,0.94494 -1.88988,2.74033 -0.47248,2.74032 -1.22843,0.28349 -0.75595,-0.66146 z" />
    <path id="FR-BOU" style="fill:none;stroke:#000000;stroke-width:0.26458332px;stroke-linecap:butt;stroke-linejoin:miter;stroke-opacity:1" d="m 149.9148,145.95126 -5.62239,0.0473 -0.85045,4.67746 -1.03943,1.55915 -3.68527,-2.88207 -1.22842,1.5119 -2.17337,2.12612 -1.46465,-0.0473 -2.59859,-0.37797 -1.18118,-1.7009 0.99219,-1.79538 -0.0473,-3.26005 -2.50409,-1.5119 -0.99218,-1.74814 -1.51191,-2.83482 -2.4096,1.79538 -5.5279,-1.18117 -0.33069,-1.6064 0.14174,-2.83482 -1.13393,-1.32292 0.42523,-6.3311 -1.65365,-2.83482 0.42523,-2.26786 0.47247,-0.8032 0.94494,-0.23623 -0.0473,-1.37017 -0.94494,-1.27567 v -1.03943 l 1.55915,-3.59077 0.0945,-3.2128 -0.42522,-1.03944 -1.37016,-0.28348 2.92931,-4.44122 4.81919,-0.28349 2.36235,1.6064 -0.37798,2.17336 2.17337,0.0945 2.45684,5.57515 3.77976,-0.37797 0.56697,1.22842 1.41741,-0.18899 6.23661,-3.1183 4.34672,5.57515 -0.37797,2.26785 2.55134,1.13393 3.77976,0.75595 0.51972,0.99219 0.99219,0.61421 -0.18899,0.56697 -1.74814,1.79538 1.13393,2.03163 -0.18899,1.70089 -0.75595,0.99219 -0.8032,1.55915 -3.30729,4.34672 2.03162,1.88989 0.75596,0.61421 -0.33073,0.23623 -2.26786,0.33073 0.23624,0.85045 1.55915,1.84263 z" />
    <path id="FR-RHO" style="fill:none;stroke:#000000;stroke-width:0.26458332px;stroke-linecap:butt;stroke-linejoin:miter;stroke-opacity:1" d="m 163.19122,147.03794 0.75595,3.2128 0.33073,1.13393 -2.59859,2.03162 -0.28348,0.85045 0.75595,0.8032 3.96875,-2.22061 -0.0945,-2.12612 2.64583,-1.93713 5.85863,0.28349 0.99219,2.64583 -0.0472,0.61421 -2.03163,0.56697 0.0945,0.7087 1.55915,2.31511 1.98437,1.41741 v 2.92931 l -3.30729,0.99219 v 2.07887 l 2.12612,1.79539 0.7087,1.55914 0.28349,2.31511 2.69308,1.08668 -0.85045,1.13393 -0.33073,1.55915 -0.28348,1.98438 -1.70089,0.0472 -1.6064,1.74814 -4.06325,0.0945 -2.59858,1.18117 -1.27567,0.66146 -2.78758,-1.13393 -0.0945,1.98438 2.59858,1.41741 -0.14174,2.88207 c 0,0 -1.88988,-1.03944 -2.07887,-1.08669 -0.18898,-0.0472 -1.55915,-0.18898 -1.55915,-0.18898 l -1.70089,0.61421 -0.75595,0.8032 -1.37017,0.0945 -1.79538,2.92932 -1.98438,0.14174 -0.8032,1.41741 0.51972,0.47247 0.75595,0.0945 -0.37797,1.22843 -0.75596,0.37797 h -1.88988 l -0.89769,0.75596 -0.18899,0.85044 1.37017,1.22842 1.18117,0.23624 0.47247,0.0472 1.22842,2.26785 -0.51971,0.94494 -1.03944,-0.23623 -0.61421,-0.23624 -0.66146,0.8032 -0.85045,0.8032 -2.88206,-2.55134 -2.97657,1.32292 2.12612,-3.1183 -4.67745,1.27567 -1.88989,-1.32292 -5.10267,0.56696 0.23623,-0.89769 -1.98438,-0.56696 -1.18117,1.98437 -2.92931,-1.46466 -0.0472,-1.93712 -1.32292,-0.8977 -1.84263,-6.85082 6.42559,-2.74032 -0.18899,-1.37017 1.18118,-0.42522 0.56696,-1.98438 1.18118,0.0472 0.7087,-1.5119 -0.18898,-1.18118 -1.27567,-2.88207 -1.18118,0.33073 -0.8032,-1.65364 -4.81919,0.51971 0.89769,-3.02381 -3.35454,-5.29166 0.0945,-0.66146 0.47246,-0.33073 0.0472,-1.22842 -1.37016,-1.6064 0.37797,-0.66146 1.84264,-1.46466 0.37797,-4.91369 c 0,0 1.41741,-0.66146 1.41741,-0.66146 v 0 l 1.18118,1.7009 2.59859,0.37797 1.46465,0.0473 2.17337,-2.12612 1.22842,-1.5119 3.68527,2.88207 1.03943,-1.55915 0.85045,-4.67746 5.62239,-0.0473 1.03944,1.08668 -1.84263,1.74814 3.16555,2.88207 1.88988,-1.37016 1.88988,1.74814 z" />
    <path id="FR-PRO" style="fill:none;stroke:#000000;stroke-width:0.26458332px;stroke-linecap:butt;stroke-linejoin:miter;stroke-opacity:1" d="m 170.75077,176.66179 3.68524,5.85867 0.66146,0.28348 1.79539,0.18899 0.28348,3.1183 -0.61421,0.42522 -1.37017,0.23624 -1.22842,3.26005 0.28348,0.56696 1.18118,0.89769 -0.0472,0.61421 -0.85045,1.7009 0.75596,0.89769 3.54352,1.98438 3.59078,1.32291 1.41741,0.0945 3.54353,-0.8977 1.03943,3.11831 -2.36235,2.26785 -1.18118,2.69308 -0.61421,1.51191 c 0,0 -0.7087,0.37798 -1.03943,0.37798 -0.33073,0 -3.07106,0.23623 -3.07106,0.23623 l -2.36235,3.63802 h -2.03162 l -1.6064,2.97656 -1.22842,0.42523 -1.27567,0.0945 -1.37017,1.6064 1.79539,0.56696 -2.03162,2.31511 -2.78758,-0.47247 -0.99218,1.27567 c 0,0 0.14174,0.47247 -0.0472,0.47247 -0.18899,0 -3.40179,-0.8032 -3.40179,-0.8032 l 0.0472,1.98437 -3.77976,-1.32291 0.0472,1.74814 -2.83482,-1.27567 -1.37016,-2.45685 -5.10268,-0.18899 -1.13393,-0.7087 1.55915,-1.18118 -2.12611,-1.6064 -0.75595,0.47247 -2.26786,0.0945 -1.22842,-1.74814 -2.07887,-0.14174 -0.47247,1.84263 -3.26005,-0.42522 -1.46466,-2.22061 -3.0238,-0.33073 0.33072,-2.03162 2.31511,-0.28348 0.18899,-1.98438 2.64583,-0.47247 0.28348,-2.97656 0.56697,-0.66146 3.35453,-1.65365 -0.37797,-2.64583 -2.31511,-3.30729 0.14175,-0.8032 1.13394,-1.60647 1.88989,1.32292 4.67745,-1.27567 -2.12612,3.1183 2.97657,-1.32292 2.88206,2.55134 1.51191,-1.6064 1.65365,0.47247 0.51971,-0.94494 -1.22842,-2.26785 -1.65364,-0.28344 -1.37017,-1.22842 0.18899,-0.85044 0.89769,-0.75596 h 1.88988 l 0.75596,-0.37797 0.37797,-1.22843 -0.75595,-0.0945 -0.51972,-0.47247 0.8032,-1.41741 1.98438,-0.14174 1.79538,-2.92932 1.37017,-0.0945 0.75595,-0.8032 1.70089,-0.61421 1.51189,0.0945 2.12613,1.18114 0.14174,-2.88207 -2.59858,-1.41741 0.0945,-1.98438 2.78758,1.13393 z" />
    <path id="FR-LAN" style="fill:none;stroke:#000000;stroke-width:0.26458332px;stroke-linecap:butt;stroke-linejoin:miter;stroke-opacity:1" d="m 133.56735,212.04986 -2.55136,-0.189 -0.56696,-1.84263 h -2.03162 l -1.65365,0.94494 -1.37016,1.5119 -1.03943,0.61421 -0.51972,0.8977 -1.27567,0.23623 -2.22061,1.98438 -2.4096,-0.14174 -2.26786,0.85044 -1.32291,1.51191 -1.13393,1.65364 -0.66146,1.98438 -0.33073,2.78757 0.66146,5.14993 0.75595,0.28348 1.55915,2.17336 -0.8032,1.27567 -0.66145,0.33073 -0.94495,-1.08668 h -4.25223 l -1.84263,2.69308 -1.46466,-1.55915 -2.22061,1.84263 -4.157737,-3.40178 -3.82701,2.3151 -2.409597,-3.77976 5.669642,-3.63802 -1.086681,-1.51191 -0.897694,0.0945 -0.708705,0.28348 -2.078868,-1.98437 1.700892,-1.41742 0.377976,-0.75595 0.236236,-3.2128 c 0,0 -2.598587,-1.98437 -2.976563,-2.22061 -0.377975,-0.23623 -0.992187,-1.27567 -0.992187,-1.27567 l 0.188986,-2.3151 2.031625,-0.14174 0.236233,-1.6064 1.370163,0.85045 1.181177,0.23623 1.181177,-1.32291 1.700892,1.13392 0.897693,0.61421 0.23623,-1.60639 1.46466,0.37797 2.07887,0.85045 1.18118,0.33073 2.07887,-1.27567 -1.18118,-2.03162 c 0,0 -0.18899,-0.99219 0.0473,-0.99219 0.23623,0 1.22842,-0.99219 1.5119,-0.99219 0.28349,0 1.37017,0.70871 1.37017,0.70871 0,0 0.47247,0.7087 0.75595,0.47247 0.28348,-0.23624 2.17336,-1.7009 2.17336,-1.7009 l 1.46466,-0.0472 1.65364,-3.73252 0.99219,0.8977 2.45685,-1.46466 0.0945,-1.65365 1.74814,-1.22842 -2.4096,-1.22842 0.99219,-2.31511 -3.49628,-1.08668 0.14174,-5.71689 -1.41741,-2.03162 -0.0945,-1.5119 1.74814,-4.48847 2.97656,-2.17337 2.22061,1.7009 0.14174,2.07887 1.74814,-0.28349 0.18899,-1.70089 1.27567,-0.42522 0.18899,0.94494 0.28348,1.03943 2.40967,0.94487 1.84263,6.85082 1.32292,0.8977 0.0472,1.93712 2.92931,1.46466 1.18117,-1.98437 1.98438,0.56696 -0.23623,0.89769 5.10268,-0.56695 -1.13394,1.60647 -0.14175,0.8032 2.31511,3.30729 0.37797,2.64583 -3.35453,1.65365 -0.56697,0.66146 -0.28348,2.97656 -2.64583,0.47247 -0.18899,1.98438 -2.31511,0.28348 z" />
    <path id="FR-AUV" style="fill:none;stroke:#000000;stroke-width:0.26458332px;stroke-linecap:butt;stroke-linejoin:miter;stroke-opacity:1" d="m 114.47959,185.92229 -0.66151,-1.37021 -0.0472,-1.5119 h -1.08668 l -1.84263,-3.54353 -4.39398,6.47284 -3.73251,-0.33073 -1.46466,-0.85044 0.89769,-3.02381 -1.74813,-0.51972 -0.33073,-0.8032 0.23624,-2.17336 1.55915,-2.12612 0.14174,-1.74814 1.6064,-0.94494 0.75596,-1.18118 0.14174,-1.46465 0.56696,-0.66146 3.16555,-0.99219 0.0945,-3.16555 0.66145,-1.84263 -1.55915,-1.93713 0.66146,-1.37016 -1.74814,-2.03163 1.27566,-0.51971 h 0.23623 l 2.07888,-0.8977 -0.0945,-3.77976 -4.06324,-3.87426 -0.51972,-2.36235 -0.80316,-0.89769 5.24442,-1.6064 0.61421,-4.15774 7.41773,-1.98437 0.33069,1.6064 5.5279,1.18117 2.4096,-1.79538 2.50409,4.58296 2.50409,1.5119 0.0473,3.26005 -0.99219,1.79538 -1.41739,0.66134 -0.37797,4.91369 -1.84264,1.46466 -0.37797,0.66146 1.37016,1.6064 -0.0472,1.22842 -0.47246,0.33073 -0.0945,0.66146 3.35454,5.29166 -0.89769,3.02381 4.81919,-0.51971 0.8032,1.65364 1.18118,-0.33073 1.27567,2.88207 0.18898,1.18118 -0.7087,1.5119 -1.18118,-0.0472 -0.56696,1.98438 -1.18118,0.42522 0.18899,1.37017 -6.42559,2.74032 -2.40962,-0.94483 -0.47247,-1.98437 -1.27567,0.42522 -0.18899,1.70089 -1.74814,0.28349 -0.14174,-2.07887 -2.22061,-1.7009 -2.97656,2.17337 z" />
    <path id="FR-MID" style="fill:none;stroke:#000000;stroke-width:0.26458332px;stroke-linecap:butt;stroke-linejoin:miter;stroke-opacity:1" d="m 92.604166,231.0904 -2.740327,-1.46466 0.850445,-1.03943 -0.661459,-1.41742 -3.212795,-0.66145 -2.645833,0.94494 v -1.51191 l -4.913691,-2.74032 -0.283483,1.88988 -5.008184,-1.32292 -4.252232,1.03943 -3.590775,-1.5119 -5.480661,-1.74824 0.377981,-4.06319 1.88988,-0.33073 v -1.79539 l 4.063245,-2.78757 0.141738,-3.07111 -1.086681,-0.28343 -0.330727,-0.75595 0.28348,-0.75601 -0.425225,-0.56696 -0.09449,-1.08668 -4.441217,5e-5 2.126112,-1.70095 -0.14174,-4.77195 3.921501,-1.88988 0.614214,1.37022 1.058207,-2.28299 0.384201,-0.0334 1.135896,0.23386 2.639285,0.0334 0.83003,-0.88023 1.039434,-0.37794 1.889879,0.92132 1.441037,0.4016 0.354354,-0.14174 0.944941,-1.41741 1.086678,0.14174 1.181179,-0.37797 0.803196,-1.79539 0.236236,-1.6064 -1.464662,-1.03948 0.472474,-0.80319 1.842633,0.28348 0.708707,-0.70867 -0.803198,-1.88988 0.377976,-1.03943 1.370163,-0.61421 -0.472469,-0.75596 0.519716,-0.85044 0.755954,0.23623 1.476468,-0.0472 0.2008,-0.2008 0.07087,-0.55516 -0.14174,-0.66146 0.236231,-1.03943 1.086686,-1.27567 1.88989,-3.44901 0.661458,0.33073 2.645833,0.56696 6.283855,-0.0945 -0.23619,2.17336 0.33073,0.8032 1.74813,0.51972 -0.89769,3.02381 1.46466,0.85044 3.73251,0.33073 4.39398,-6.47284 1.84263,3.54353 h 1.08668 l 0.0472,1.5119 0.66151,1.37021 0.0945,1.5119 1.41741,2.03162 -0.14174,5.71689 3.49628,1.08668 -0.99219,2.31511 2.4096,1.22842 -1.74814,1.22842 -0.0945,1.65365 -2.45685,1.46466 -0.99219,-0.8977 -1.65364,3.73252 -1.46466,0.0472 -2.21572,1.69985 -0.18851,0.0251 -0.32674,-0.22621 -0.19834,-0.27035 -1.19661,-0.67218 -0.21364,-0.0377 -0.37701,0.1885 -1.04307,0.77916 -0.13824,0.10054 -0.0503,0.36444 0.0895,0.55291 1.18118,2.03162 -2.07887,1.27567 -1.18118,-0.33073 -2.07887,-0.85045 -1.46466,-0.37797 -0.23623,1.60639 -2.598583,-1.74813 -1.181177,1.32291 -1.181179,-0.23623 -1.370161,-0.85045 -0.236233,1.6064 -2.031627,0.14174 -0.188984,2.3151 0.693253,1.00335 0.33768,0.31101 2.937817,2.18192 -0.236236,3.2128 -0.377978,0.75595 -1.70089,1.41742 2.078868,1.98437 0.708705,-0.28348 0.897691,-0.0945 1.086684,1.51191 z" />
	<path id="FR-AQU" style="fill:none;stroke:#000000;stroke-width:0.26458332px;stroke-linecap:butt;stroke-linejoin:miter;stroke-opacity:1" d="m 60.098214,166.9289 0.14174,6.89811 -1.133927,-4.29948 -0.755954,-3.16555 -2.83482,-2.83482 -0.566965,-2.22061 -1.133928,0.99218 -0.283482,3.87426 -2.173365,11.90625 -0.566962,2.07887 1.039434,-0.94494 0.708705,-0.28349 1.464657,2.36236 -3.496278,-0.0945 -2.787576,14.17411 -0.992188,2.50409 -1.606399,4.48847 -2.031622,2.69308 -2.220608,1.55915 -3.165551,0.70871 0.519718,1.27567 1.795386,-0.0945 0.377975,1.65365 0.566966,0.42522 1.700892,-1.22842 1.181177,1.6064 -1.27567,2.97656 v 0.75595 l 1.748139,0.51972 1.559152,-1.41741 0.472469,1.13393 c 0,0 1.039435,0.61421 1.228424,0.75595 0.188986,0.14174 6.142111,2.74033 6.142111,2.74033 l 1.606399,2.88207 5.338908,0.23613 0.377981,-4.06319 1.88988,-0.33073 v -1.79539 l 4.063245,-2.78757 0.141738,-3.07111 -1.086681,-0.28343 -0.330727,-0.75595 0.28348,-0.75601 -0.425225,-0.56696 -0.09449,-1.08668 -4.441217,5e-5 2.126112,-1.70095 -0.14174,-4.77195 3.921501,-1.88988 0.614214,1.37022 1.058207,-2.28299 0.384201,-0.0334 1.135896,0.23386 2.639285,0.0334 0.83003,-0.88023 1.039434,-0.37794 1.889881,0.92132 1.441035,0.4016 0.354354,-0.14174 0.519716,-0.8032 0.425225,-0.61421 1.086678,0.14174 1.181179,-0.37797 0.803196,-1.79539 0.236236,-1.6064 -1.46466,-1.03948 0.472472,-0.80319 c 0,0 1.842633,0.28348 1.842633,0.28348 l 0.708707,-0.70867 -0.803198,-1.88988 0.377976,-1.03943 1.370163,-0.61421 -0.472469,-0.75596 0.519716,-0.85044 0.755954,0.23623 1.476468,-0.0472 0.2008,-0.2008 0.07087,-0.55516 -0.14174,-0.66146 0.236231,-1.03943 1.086686,-1.27567 1.889887,-3.44902 v -3.49628 l -2.976563,-3.16555 1.984375,-1.88988 v -2.59859 h -1.748139 l -1.796248,-2.66553 -0.300678,-0.26727 -1.035669,-1.35305 -0.417608,-0.18375 -2.969887,-1.90875 -2.759704,1.30739 -0.400905,0.11693 -0.11693,0.28398 -0.02976,0.654 -1.511906,3.59078 -2.126115,0.28348 -0.188987,2.50409 -3.874256,1.98437 -0.425223,1.55916 -1.748142,0.75595 -1.889879,-2.45685 -2.456846,-0.18898 v -2.31511 l -1.27567,-1.27567 z" />
    <path id="FR-COR" style="fill:none;stroke:#000000;stroke-width:0.26458332px;stroke-linecap:butt;stroke-linejoin:miter;stroke-opacity:1" d="m 178.82998,237.75223 -0.0945,-2.31511 1.46466,-0.85044 -0.23624,-2.36235 c 0,0 0.8032,-0.8032 0.8977,-1.03944 0.0945,-0.23623 1.46465,-2.69308 1.46465,-2.69308 l 0.8977,-0.28348 1.79538,-0.23623 1.37017,-0.8977 c 0,0 0.61421,-0.75595 0.85044,-0.75595 0.23624,0 0.75596,0 0.75596,0 l 0.7087,0.94494 0.37798,-0.0472 c 0,0 0.47247,-5.48065 0.7087,-5.57514 0.23624,-0.0945 1.55916,-0.33073 1.79539,-0.33073 0.23623,0 0.47247,0.94493 0.47247,0.94493 l -0.18899,5.24442 1.08668,3.11831 -0.28348,6.85082 -2.36235,2.36235 -0.28348,4.81919 -0.70871,4.53572 -0.85044,0.89769 -0.75596,0.94494 c 0,0 -0.8032,-0.85044 -1.13393,-0.99219 -0.33072,-0.14174 -1.5119,-1.46465 -1.5119,-1.46465 l -2.74033,0.0945 0.33073,-1.03943 -1.13393,-1.27567 0.14174,-0.70871 1.65365,-1.32292 -0.47247,-0.56696 -2.74033,-0.18899 0.37798,-1.18117 0.94494,-1.32292 -2.26786,-0.18899 c 0,0 0.18899,-0.61421 0.66146,-0.8032 0.47247,-0.18898 1.5119,-1.93713 1.5119,-1.93713 z" />
  </g>
</svg>
